#!OML:ASF H:\Terrain\Patient Classification 1\Animal2\Wednesday\Animal2.ASF
:FULLY-SPECIFIED
:DEGREES
3001
root 18.4639 16.0293 -10.929 -4.74714 -28.7831 -1.1154
lowerback 2.13872 -9.69125 -6.71536
upperback -4.97699 -13.216 2.72403
thorax -4.25842 -6.29153 7.02212
lowerneck 2.17866 -5.6217 11.2662
upperneck -1.70736 -7.92248 -18.8843
head -2.10794 -3.84487 -7.39322
rclavicle -1.25831e-013 -1.19271e-014
rhumerus -39.256 4.88546 -91.4761
rradius 118.483
rwrist -11.4895
rhand -15.8206 7.38471
rfingers 7.12502
rthumb 10.3732 -22.3394
lclavicle -1.25831e-013 -1.19271e-014
lhumerus -45.8951 7.67863 82.9692
lradius 124.847
lwrist -4.9465
lhand 21.8182 35.3904
lfingers 7.12502
lthumb 46.2249 -661.609
rfemur -26.1449 23.9327 0.280962
rtibia 45.3414
rfoot -30.0134 7.56096
rtoes -23.3258
lfemur -1.14079 17.2517 -0.192154
ltibia 48.0506
lfoot -33.1307 6.38673
ltoes -32.6494
3002
root 18.4652 16.0321 -10.939 -4.55472 -28.9656 -1.37206
lowerback 2.14029 -9.63055 -6.36516
upperback -4.90592 -13.1138 2.75749
thorax -4.2654 -6.2547 6.87243
lowerneck 2.02118 -5.61044 11.4296
upperneck -1.73113 -7.92136 -18.9687
head -2.09792 -3.85135 -7.45355
rclavicle 3.3197e-014 5.56597e-015
rhumerus -39.2053 4.93729 -91.3819
rradius 118.337
rwrist -11.6581
rhand -16.572 7.08474
rfingers 7.12502
rthumb 9.64827 -22.6743
lclavicle 3.3197e-014 5.56597e-015
lhumerus -45.55 7.59544 82.9243
lradius 124.907
lwrist -4.16782
lhand 21.5965 34.7535
lfingers 7.12502
lthumb 46.0194 -662.16
rfemur -26.3561 24.0151 0.540193
rtibia 45.395
rfoot -30.0601 7.2953
rtoes -23.5634
lfemur -1.21482 17.3421 0.0767213
ltibia 48.097
lfoot -33.1205 6.02672
ltoes -31.8701
3003
root 18.4626 16.0337 -10.9537 -4.33671 -29.2351 -1.45364
lowerback 2.06691 -9.46649 -6.21338
upperback -4.87476 -12.881 2.771
thorax -4.25513 -6.14555 6.79437
lowerneck 1.7194 -5.65946 11.5879
upperneck -1.60292 -7.99647 -19.0866
head -2.03324 -3.90673 -7.5248
rclavicle -3.33958e-014 -2.70347e-014
rhumerus -39.1461 4.66494 -91.2438
rradius 118.286
rwrist -12.0071
rhand -17.1835 6.74794
rfingers 7.12502
rthumb 9.05828 -23.0376
lclavicle -3.33958e-014 -2.70347e-014
lhumerus -45.1444 7.36795 83.001
lradius 124.911
lwrist -3.23321
lhand 21.5969 33.9057
lfingers 7.12502
lthumb 46.0197 -663.008
rfemur -26.8107 24.1594 0.566361
rtibia 45.514
rfoot -29.9488 7.23474
rtoes -23.3788
lfemur -1.38485 17.5814 0.173545
ltibia 48.1545
lfoot -33.1556 5.79507
ltoes -31.2598
3004
root 18.4587 16.0338 -10.9651 -4.35121 -29.3469 -1.28017
lowerback 2.07722 -9.39494 -6.28575
upperback -4.83125 -12.7898 2.71906
thorax -4.22557 -6.10025 6.77636
lowerneck 1.51772 -5.6667 11.4305
upperneck -1.54484 -8.00858 -18.9124
head -1.96924 -3.92415 -7.44683
rclavicle 1.39944e-013 2.06736e-014
rhumerus -39.162 4.51634 -91.187
rradius 118.314
rwrist -12.542
rhand -17.9703 6.57052
rfingers 7.12502
rthumb 8.29899 -23.2465
lclavicle 1.39944e-013 2.06736e-014
lhumerus -44.8972 7.2746 82.9967
lradius 125.051
lwrist -2.22221
lhand 21.0507 33.3954
lfingers 7.12502
lthumb 45.5126 -663.31
rfemur -27.1161 24.2152 0.399404
rtibia 45.7137
rfoot -29.9729 6.92568
rtoes -23.8865
lfemur -1.46726 17.6996 0.0190968
ltibia 48.1923
lfoot -33.0694 5.98382
ltoes -31.5817
3005
root 18.456 16.033 -10.9788 -4.3852 -29.3075 -1.12369
lowerback 1.94585 -9.41356 -6.2767
upperback -4.61575 -12.8023 2.56518
thorax -3.95866 -6.12721 6.56341
lowerneck 1.20256 -5.62542 11.3104
upperneck -1.54094 -7.95846 -18.5792
head -1.88575 -3.91465 -7.33085
rclavicle 8.11041e-014 1.19271e-014
rhumerus -38.9142 4.26643 -91.2814
rradius 118.187
rwrist -12.5969
rhand -18.2476 6.57817
rfingers 7.12502
rthumb 8.03133 -23.2492
lclavicle 8.11041e-014 1.19271e-014
lhumerus -44.5569 7.17504 82.7164
lradius 125.301
lwrist -1.1536
lhand 20.2717 32.918
lfingers 7.12502
lthumb 44.7881 -663.499
rfemur -27.3482 24.1044 0.291886
rtibia 45.9871
rfoot -30.4396 6.02174
rtoes -25.7982
lfemur -1.60513 17.6904 -0.126312
ltibia 48.2226
lfoot -32.9196 6.10821
ltoes -31.7808
3006
root 18.4536 16.0348 -10.9976 -4.25683 -29.2583 -1.05877
lowerback 1.81896 -9.41755 -6.20792
upperback -4.49152 -12.7953 2.44875
thorax -3.798 -6.13821 6.37131
lowerneck 1.09909 -5.6312 11.3634
upperneck -1.67662 -7.976 -18.3462
head -1.90102 -3.92486 -7.26589
rclavicle -1.46107e-013 -9.54166e-015
rhumerus -38.7311 4.1958 -91.2581
rradius 117.924
rwrist -12.7316
rhand -18.3993 6.72738
rfingers 7.12502
rthumb 7.88497 -23.1056
lclavicle -1.46107e-013 -9.54166e-015
lhumerus -44.3077 7.06363 82.3688
lradius 125.477
lwrist -0.410012
lhand 20.0681 32.1142
lfingers 7.12502
lthumb 44.5986 -664.23
rfemur -27.7027 23.9849 0.212259
rtibia 46.304
rfoot -30.7161 5.43038
rtoes -27.0229
lfemur -1.90655 17.7413 -0.193912
ltibia 48.2683
lfoot -32.7419 6.11602
ltoes -31.995
